<svg xmlns="http://www.w3.org/2000/svg" enable-background="new 0 0 385.1 304.1" version="1.1" viewBox="0 0 385.1 304.1" xml:space="preserve"><link xmlns="" type="text/css" rel="stylesheet" id="dark-mode-custom-link"/><link xmlns="" type="text/css" rel="stylesheet" id="dark-mode-general-link"/><style xmlns="" lang="en" type="text/css" id="dark-mode-custom-style"/><style xmlns="" lang="en" type="text/css" id="dark-mode-native-style"/><style xmlns="" lang="en" type="text/css" id="dark-mode-native-sheet"/><script xmlns=""/>
    <title>email2sms</title>
    <path d="m76.9 44.5c27-3.9 54.8-1.2 81.6-6.6 28-5.6 53.5-19.8 80.5-29.2s58.2-13.6 83.2 0.1c15.3 8.4 26.6 22.8 35.5 37.9 17.4 29.9 26.9 63.7 27.5 98.3 0.3 17.1-1.7 34.4-7 50.7-17.6 54.5-70.8 92.3-126.9 103.9-61.6 12.8-128.6-2.8-178.4-41.3-42.4-32.9-84.3-91.4-69.9-144.8 9.4-35.4 33.4-63.1 73.9-69z" enable-background="new    " fill="#DDF1FD"/>
    <path d="m230.7 204.6-30.7 22.7c-1.4 1-3.3 0.7-4.3-0.6l-12.7-17.3c-0.2-0.3-0.4-0.7-0.5-1.1-0.3-1.2 0.1-2.5 1.1-3.2l30.7-22.8c0.7-0.5 1.7-0.7 2.6-0.5 0.7 0.2 1.3 0.6 1.7 1.1l12.8 17.2c0.9 1.5 0.7 3.5-0.7 4.5z" fill="#00B1EB"/>
    <linearGradient id="i" x1="909.84" x2="913.93" y1="-6.5631" y2="61.697" gradientTransform="matrix(.94 -.33 .33 .94 -665.88 471.92)" gradientUnits="userSpaceOnUse">
	<stop stop-color="#fff" offset=".01"/>
        <stop stop-color="#fff" stop-opacity="0" offset="1"/>
</linearGradient>
    <path d="m216.9 181.9-5.7 25.6-28.8 0.9c-0.3-1.2 0.1-2.5 1.1-3.2l30.8-22.8c0.7-0.5 1.7-0.7 2.6-0.5z" fill="url(#i)"/>
    <linearGradient id="h" x1="883.87" x2="975.75" y1="3.796" y2="119.31" gradientTransform="matrix(.94 -.33 .33 .94 -665.88 471.91)" gradientUnits="userSpaceOnUse">
	<stop offset=".01"/>
        <stop stop-opacity=".69" offset=".08"/>
        <stop stop-opacity=".32" offset=".21"/>
        <stop stop-opacity="0" offset="1"/>
</linearGradient>
    <polygon points="200.9 207.8 201.8 225.9 230.7 204.6 213.2 198.3 211.2 207.4" fill="url(#h)"/>
    <path d="m236.4 59.1-34.3 48.9-6.6-18.3c-22.8 6.1-45.2 13.4-67.2 21.9-25.3 10.1-49.7 22.6-56.8 35.6-16.1 29.8 21.7 42.9 21.7 42.9-7.2 0.6-14.4 0.4-21.6-0.5-18.8-2.5-42.2-11.6-35.4-42.4 5.3-24.3 40.2-44.8 74.4-59.4h0.1c5-2.1 10-4.1 14.9-6l0.1-0.1c18.3-7 37-13 55.9-18l-3.3-16 58.1 11.4z" fill="#00B1EB"/>
    <linearGradient id="g" x1="228.71" x2="-59.852" y1="7.7932" y2="-189.45" gradientTransform="translate(-20.59 202.74)" gradientUnits="userSpaceOnUse">
	<stop offset=".01"/>
        <stop stop-opacity=".69" offset=".08"/>
        <stop stop-opacity=".32" offset=".21"/>
        <stop stop-opacity="0" offset="1"/>
</linearGradient>
    <path d="m71.5 147.2c-16.1 29.8 21.7 42.9 21.7 42.9-7.2 0.6-14.4 0.4-21.6-0.5-2.8-3.3-5.5-6.7-7.9-10.3-21.7-31.5 24.8-56.3 24.8-56.3 3.9-14.1 22.1-25.8 22.1-25.8v-9.4h0.1l14.9-6 0.1-0.1 3.3 27.3-0.7 2.6c-25.4 10.1-49.8 22.7-56.8 35.6z" fill="url(#g)"/>
    <path d="m176.9 250c-0.9 1.6-1.5 3.3-1.7 5.1 0 1.8 0.6 3.5 1.7 5 2.2 3.2 5.5 5.5 9.3 6.3 0.5 0.2 1 0.1 1.5-0.1 0.3-0.2 0.6-0.5 0.7-0.9 0.9-1.9 0.5-4-0.1-6s-1.4-3.9-1.3-6c0.1-3.9 5.7-11.3-0.8-13.2-5.3-1.4-7.6 6.4-9.3 9.8z" fill="#B2857F"/>
    <path d="m173.1 255.1s-1.9 1.6-1.5 3.3 7.2 13.7 16.9 12.3-6.3-11-6.3-11l-9.1-4.6z" fill="#00B1EB"/>
    <path d="m176.1 250.7c0.8 0 1.5 0.7 1.6 1.5 0.5 2.3 2.2 4.2 4.4 5 2.5 0.7 4.9-1.4 6-0.8s4.3 9 3.5 11.3-4.8 2.3-8.3 0.7-9.9-8.1-10.4-10.7 1.8-6.3 3.2-7z" fill="#fff"/>
    <path d="m135.6 263.9c-0.9 1.8-1.5 3.7-1.6 5.7 0.1 2 0.9 3.9 2.1 5.4 2.6 3.5 6.4 5.8 10.6 6.6 0.6 0.1 1.1 0.1 1.7-0.1 0.4-0.3 0.6-0.6 0.8-1 0.9-2.1 0.4-4.5-0.4-6.7s-1.8-4.3-1.8-6.6c0-4.3 5.8-12.9-1.5-14.6-5.9-1.4-8.1 7.4-9.9 11.3z" fill="#B2857F"/>
    <path d="m131.7 269.7s-2 1.8-1.6 3.7 8.6 14.9 19.4 12.9-7.5-11.9-7.5-11.9l-10.3-4.7z" fill="#00B1EB"/>
    <path d="m134.7 264.6c0.9 0 1.7 0.7 1.9 1.6 0.7 2.5 2.6 4.6 5.2 5.3 2.9 0.6 5.4-1.8 6.6-1.2s5.3 9.8 4.4 12.4-5.2 2.8-9.2 1.2-11.4-8.6-12-11.4 1.6-7 3.1-7.9z" fill="#fff"/>
    <path d="m157.2 159.6c0.3 0 0.5 0.1 0.8 0.2 6.3 2.4 13.9 13.1 18.2 18.2 5.6 6.4 10.2 13.6 13.8 21.4 7.3 16.2 7.9 36.3-2.3 50.9l-7.8-1.6c-0.7-0.1-1.3-0.4-1.9-0.8-0.5-0.8-0.7-1.8-0.5-2.7 0.4-5.6 0.2-11.2-0.8-16.8-0.5-3.8-1.7-7.5-3.4-10.9-2.5-4.4-6.3-7.9-10.1-11.2-12-10.6-22.8-21.6-28.7-36.7 5.4-2.7 16.9-11 22.7-10z" fill="#473F47"/>
    <path d="m139 167.7c0.3 0.1 0.5 0.2 0.7 0.4 5.6 3.8 10.5 16 13.5 21.9 3.9 7.6 6.8 15.6 8.5 24 3.3 17.4-0.8 37.2-14.1 49l-7.3-3.4c-0.6-0.2-1.2-0.7-1.6-1.2-0.3-0.9-0.3-1.9 0.1-2.8 1.7-5.4 2.8-10.9 3.2-16.5 0.4-3.8 0.1-7.7-0.8-11.4-1.4-4.9-4.3-9.1-7.2-13.3-9.2-13.1-17.1-26.3-19.4-42.3 5.9-1.2 19.1-6.7 24.4-4.4z" fill="#473F47"/>
    <path d="m171.6 129.6v0.1c0.1 1.7 0.6 3.1 0.2 4.8-0.5 1.9-2.2 3.6-4.1 3.3-1.6-0.2-2.7-1.7-3.9-2.7-1.3-1-2.7-1.9-4.2-2.5-2-0.9-4.1-1.8-6.1-2.6-1.3-0.5-3.8-0.8-4.4-2.2s-0.4-3.5-0.5-4.9l-2.5-22.7 23.2 19c0.9 2.1 1.7 4.2 2.2 6.5 0.1 1.4 0.2 2.7 0.1 3.9z" fill="#fff"/>
    <path d="m154.4 132.1c0.1 1.3 0.4 2.7 0.6 4 0.8 7.4-0.1 15.2 2.9 22.2 0.7 1.6 1.6 3.2 1.2 4.9-0.5 1.4-1.5 2.6-2.8 3.3-6.1 4.3-13.6 6.2-20.8 8-5.4 1.4-13.1 3.9-18.6 1.5-2.3-1-3.3-3.3-4.3-5.6-3-7.3-4.6-15.3-6-23-0.2-1-0.4-2-0.5-3-1.2-7-2.1-14-2.8-21.1-0.5-5.2-0.7-10.8 2.3-15 3.9-5.7 12.2-10 18.6-12 2.1-0.7 4.2-1 6.4-1.1 3.1 0.1 6.2 0.8 9.1 2 3.4 1.3 6.5 2.3 8.4 5.3 2.2 3.5 3.8 7.3 4.9 11.3 1 3.7 1.6 7.6 1.5 11.5 0 1.9-0.3 3.8-0.3 5.7 0.2 0.5 0.2 0.8 0.2 1.1z" fill="#fff"/>
    <path d="m128.8 177.4c-2.1 0.9-7.2-0.6-8.9-0.7-1-0.1-2-0.5-3-0.6-5-0.7-7.1-14.4-8-18-2.3-9.6-5.4-19.6-6.6-29.4-0.5-3.8-0.8-7.7 0.1-11.4s3-7.3 6.4-9c6-2.9 10 16.7 11.4 20.7 1.6 5 3.3 10 4.9 15 0.7 2.2 1 4.7 2.2 6.8 1.9 3.1 3.4 2.5 6.6 2 6.6-1.1 12.7-3.9 19.2-5.5 0.5-0.2 1.1-0.2 1.6 0.1 0.3 0.3 0.6 0.7 0.7 1.1 0.4 1.3 0.6 2.6 0.6 3.9 0 0.4 0 0.8-0.2 1.1-0.2 0.4-0.5 0.7-0.9 0.9-4.4 2.9-9.2 5.1-14.2 6.5-4 1.1-7.8 3-10.5 6.3-2.4 3 0.7 6.2-0.6 9.4-0.2 0.3-0.4 0.6-0.8 0.8z" enable-background="new    " fill="#020202" opacity=".1"/>
    <polygon points="124.3 162.2 162.6 149.3 190.7 165.4 151.6 181.4" fill="#00B1EB"/>
    <linearGradient id="f" x1="160.89" x2="136.42" y1="-77.839" y2="48.551" gradientTransform="translate(0 224)" gradientUnits="userSpaceOnUse">
	<stop offset=".01"/>
        <stop stop-opacity=".69" offset=".08"/>
        <stop stop-opacity=".32" offset=".21"/>
        <stop stop-opacity="0" offset="1"/>
</linearGradient>
    <polygon points="124.3 162.2 162.6 149.3 190.7 165.4 151.6 181.4" fill="url(#f)"/>
    <polygon points="125.8 160.2 164.2 147.2 192.3 163.3 153.2 179.3" fill="#00B1EB"/>
    <linearGradient id="e" x1="144.95" x2="232" y1="-73.931" y2="-3.7609" gradientTransform="translate(0 224)" gradientUnits="userSpaceOnUse">
	<stop offset=".01"/>
        <stop stop-opacity=".69" offset=".08"/>
        <stop stop-opacity=".32" offset=".21"/>
        <stop stop-opacity="0" offset="1"/>
</linearGradient>
    <polygon points="155 177.1 186.8 163.1 171.3 154.6 139.7 166.5" fill="url(#e)"/>
    <polygon points="153.2 179.3 191 179.3 223.5 159.1 192.3 163.3" fill="#00B1EB"/>
    <path d="m140.3 86.4c-0.4 1.4-0.8 2.8-1.3 4.2-1 3.2-3 6.1-6.5 6.9-0.8 0.1-1.5 0.2-2.3 0.3h-0.5-0.1-0.1c-0.4 0-0.8 0-1.2 0.1-0.1 0-0.2 0-0.3 0.1-1 0.5-0.9 2.1-0.8 3 0.3 1 0.1 2.1-0.3 3.1 0 0 0 0.1-0.1 0.1-0.6 0.6-1.3 1-2.2 1-1.7 0.1-3.4-0.4-4.8-1.5-0.8-0.7-1.4-1.6-1.8-2.6-0.1-0.3-0.3-0.6-0.3-0.8-0.1-0.5-0.2-1-0.1-1.5 0-0.8 0.1-1.6 0.2-2.3 0.4-1.5 0.7-3 0.9-4.6 0-0.8 0.1-1.6 0.2-2.3l0.3-1.5c0-1.5-0.8-2.9-0.8-4.4s0.1-2.9 0.4-4.4c0.5-2.9 1.8-5.6 3.6-7.8 3.4-4 9.5-6 14.3-3.7 2.4 1.1 4.2 3.2 5.2 5.6 1.5 4.2-0.5 8.9-1.6 13z" fill="#B2857F"/>
    <path d="m135.3 158.6c0.8-0.1 1.7-0.2 2.5-0.3 0.5-0.1 1 0 1.5 0.1s0.9 0.5 1 1c0 0.2 0 0.4 0.1 0.5s0.3 0.2 0.5 0.3c3 0.8 6.1 2 7.9 4.5 0.4 0.5 0.6 1.1 0.4 1.8-0.4 0.8-1.6 0.7-2.5 0.5 0.3 0.4 0.3 0.9 0 1.3s-0.7 0.6-1.2 0.6h-0.9c-0.2 0.1-0.4 0.2-0.6 0.4-0.9 0.6-1.9 0.7-2.9 0.5-1-0.1-2-0.5-3-0.6-1.6-0.1-2.9 0.4-4.4-0.2-1.6-0.8-3.3-1.4-5-1.7-0.6-0.1-1.1-0.4-1.4-0.8-0.3-0.7-0.3-1.5 0-2.2 0.3-1.2 0.7-2.4 1.4-3.5 0.9-1.2 2.3-1.4 3.7-1.6 1-0.3 1.9-0.5 2.9-0.6z" fill="#B2857F"/>
    <path d="m105.7 108.3c-7.3 12.2-14.6 26.3-16.7 40.5-0.6 3.7-0.8 8.1 0.9 11.6 2.9 5.7 12.6 6.8 18.2 7.4 6.7 0.7 13.5 0.8 20.2 0.3 0.5 0.1 1-0.2 1.1-0.7v-0.4l0.3-6.5c0-0.3 0-0.6-0.1-0.9-0.4-0.4-0.9-0.6-1.5-0.6-3.9-0.3-7.8-1.2-11.4-2.6-3.5-1.4-10.3-5-9.8-9.6 0.3-2.6 3.1-5.7 4.5-7.7 3.3-4.9 6.9-9.6 10.6-14.2-0.1 0 0.3-26.2-16.3-16.6z" fill="#fff"/>
    <path d="m139.1 80.5c1-0.2 1.9-0.9 2.4-1.8 0.4 1.2 2.4 0.8 2.8-0.3s0-2.4-0.4-3.5c1.5-0.4 2.5-1.9 2.1-3.4-0.1-0.4-0.3-0.7-0.5-1-0.3-0.4-0.8-0.7-0.9-1.2 0-0.4 0-0.8 0.2-1.1 0.1-1.2-0.4-2.4-1.4-3.1s-2.1-1.2-3.2-1.5c0.6-1 0.4-2.4-0.6-3.2-0.9-0.7-2.1-1.1-3.3-1.2-1.7-0.3-3.5 0-5 1-1.9-1.2-4.4-0.9-6 0.6-0.3 0.4-0.7 0.7-1.1 0.8-0.3 0-0.6 0-0.9-0.2-1.3-0.5-2.7-0.7-4-0.4-1.4 0.3-2.3 1.7-2.1 3.1-1 0.1-1.9 0.9-2.1 1.9 0 0.3-0.1 0.6-0.3 0.9-0.3 0.3-0.8 0.3-1.2 0.4-1.8 0.2-3.1 1.7-3 3.5 0.1 1.6 1.4 2.9 3 3-0.2 0.8 0 1.7 0.4 2.4 0.5 0.8 1.2 0.9 1.9 1.4 0.4 0.3 0.3 0.3 0.2 1 0 0.6 0 1.2 0.1 1.8 0.1 1.1 0.4 2.3 0.8 3.3 0.3 0.8 0.7 1.5 0.9 2.3 0.4 1.2 0.6 2.4 0.7 3.7l1.7-4.8v-0.2c0-0.1-0.1-0.2-0.2-0.2-1.5-1.2-2-3.3-1.2-5 0.2-0.5 0.7-0.9 1.3-1 0.7 0.1 1.2 0.6 1.5 1.2 0.4 0.6 0.6 1.3 0.8 2 0.5-1.1 1.1-2.1 1.9-3 0.3-0.4 0.7-1 1.3-0.8s0.8 1.2 1 1.5c0.8-0.3 1.5-0.8 2.1-1.4-0.1 1.4 0.6 2.8 1.8 3.5 1.3 0.6 3.1-0.3 3.1-1.7 0 0.6 2.7-0.4 2.9-0.6 0.7 0.9 1.6 1.4 2.5 1.3z" fill="#473F47"/>
    <path d="m125.9 97.8c0.8 0.1 1.6 0.1 2.4 0.1-0.1 0-0.2 0-0.3 0.1-1 0.5-0.9 2.1-0.8 3 0.3 1 0.1 2.1-0.3 3.1-0.3 0-0.6 0-0.9-0.1s-0.6-0.3-0.8-0.5c-1.9-1.5-2.6-4-1.9-6.3 0.8 0.3 1.7 0.5 2.6 0.6z" fill="#96625E"/>
    <path d="m165.6 116.4s18.3 13.5 15.8 27c-2.4 12.6-4.5 22.5-4.5 22.5l-8.6-5s5.7-18.9-6.2-27.1 3.4-17.4 3.5-17.4z" fill="#fff"/>
    <path d="m166.8 160.7-0.8 4.3c-0.1 0.5-0.2 1.1-0.1 1.6 0.1 0.6 0.6 1 1.2 1s1.1-0.7 1.7-0.5l0.6 0.3c1.3 0.7 2.8 0 4.2-0.6 0.2-0.1 0.5-0.2 0.7-0.1 0.3 0.1 0.5 0.4 0.7 0.6 0.5 0.3 1.2 0.3 1.6-0.1 0.5-0.4 0.8-0.9 1-1.4 1.1-2.4 0.9-5.2-0.5-7.4-1.6-1.9-4.1-2.9-6.5-2.4-2.6 0.2-3.3 2.3-3.8 4.7z" fill="#B2857F"/>
    <polygon points="151.6 181.4 189.4 181.4 221.9 161.1 190.7 165.4" fill="#00B1EB"/>
    <linearGradient id="d" x1="141.53" x2="304.44" y1="-25.724" y2="-123.86" gradientTransform="translate(0 224)" gradientUnits="userSpaceOnUse">
	<stop offset=".01"/>
        <stop stop-opacity=".69" offset=".08"/>
        <stop stop-opacity=".32" offset=".21"/>
        <stop stop-opacity="0" offset="1"/>
</linearGradient>
    <polygon points="153.2 179.3 151.6 181.4 189.4 181.4 191 179.3" fill="url(#d)"/>
    <polygon points="223.5 159.1 221.9 161.1 189.4 181.4 191 179.3" fill="#00B1EB"/>
    <linearGradient id="c" x1="196.44" x2="253.18" y1="-67.279" y2="9.1909" gradientTransform="translate(0 224)" gradientUnits="userSpaceOnUse">
	<stop offset=".01"/>
        <stop stop-opacity=".69" offset=".08"/>
        <stop stop-opacity=".32" offset=".21"/>
        <stop stop-opacity="0" offset="1"/>
</linearGradient>
    <polygon points="223.5 159.1 221.9 161.1 189.4 181.4 191 179.3" fill="url(#c)"/>
    <polygon points="192.7 164.2 218.5 160.6 191.6 177.1 162.1 177.6" fill="#fff"/>
    <linearGradient id="b" x1="147.72" x2="168.17" y1="-73.967" y2="-44.497" gradientTransform="translate(0 224)" gradientUnits="userSpaceOnUse">
	<stop offset=".01"/>
        <stop stop-opacity=".69" offset=".08"/>
        <stop stop-opacity=".32" offset=".21"/>
        <stop stop-opacity="0" offset="1"/>
</linearGradient>
    <polygon points="148.6 161.9 163.3 156.5 156.2 151.4 141.2 156.5" fill="url(#b)"/>
    <path d="m117.3 217.9-58.1 26.5c-2.6 1.2-5.6 0-6.8-2.5l-14.9-32.6c-0.3-0.6-0.4-1.3-0.5-1.9-0.1-2.1 1.1-4 3-4.9l58.2-26.5c1.4-0.6 3-0.6 4.4 0.1 1.1 0.5 1.9 1.4 2.4 2.5l14.8 32.6c1.2 2.5 0 5.5-2.5 6.7z" fill="#00B1EB"/>
    <linearGradient id="a" x1="107.72" x2="-11.356" y1="1.841" y2="81.231" gradientTransform="translate(-20.59 202.74)" gradientUnits="userSpaceOnUse">
	<stop offset=".01"/>
        <stop stop-opacity=".69" offset=".08"/>
        <stop stop-opacity=".32" offset=".21"/>
        <stop stop-opacity="0" offset="1"/>
</linearGradient>
    <path d="m117.3 217.9-58.1 26.5c-2.6 1.2-5.6 0-6.8-2.5l-14.9-32.6c-0.3-0.6-0.4-1.3-0.5-1.9-0.1-2.1 1.1-4 3-4.9l58.2-26.5c1.4-0.6 3-0.6 4.4 0.1 1.1 0.5 1.9 1.4 2.4 2.5l14.8 32.6c1.2 2.5 0 5.5-2.5 6.7z" fill="url(#a)"/>
    <path d="m120 216.7-58.1 26.5c-2.6 1.2-5.6 0-6.8-2.5l-14.9-32.6c-0.3-0.6-0.4-1.3-0.5-1.9-0.1-2.1 1.1-4 3-4.9l58.1-26.5c2.6-1.2 5.6 0 6.8 2.5l14.9 32.6c1.2 2.7 0 5.7-2.5 6.8z" fill="#00B1EB"/>
    <linearGradient id="s" x1="344.85" x2="351.67" y1="-88.763" y2="25.197" gradientTransform="matrix(.99 -.13 .13 .99 -267.38 271.29)" gradientUnits="userSpaceOnUse">
	<stop stop-color="#fff" offset=".01"/>
        <stop stop-color="#fff" stop-opacity="0" offset="1"/>
</linearGradient>
    <path d="m105.2 174.9-18.1 39.8-47.3-8.5c-0.1-2.1 1.1-4 3-4.9l58.1-26.5c1.3-0.6 2.9-0.6 4.3 0.1z" fill="url(#s)"/>
    <linearGradient id="r" x1="303.53" x2="456.94" y1="-69.664" y2="123.2" gradientTransform="matrix(.99 -.13 .13 .99 -267.38 271.28)" gradientUnits="userSpaceOnUse">
	<stop offset=".01"/>
        <stop stop-opacity=".69" offset=".08"/>
        <stop stop-opacity=".32" offset=".21"/>
        <stop stop-opacity="0" offset="1"/>
</linearGradient>
    <polygon points="70.1 211.6 65.4 241.6 120 216.7 93.6 200.4 87.1 214.7" fill="url(#r)"/>
    <path d="m244.3 153.4-37.5-7.4c-1.7-0.3-2.7-1.9-2.4-3.6l4.1-21c0.1-0.4 0.2-0.8 0.4-1.1 0.7-1 1.9-1.6 3.1-1.3l37.5 7.4c0.9 0.2 1.7 0.7 2.1 1.6 0.3 0.6 0.4 1.3 0.3 2l-4.2 21c-0.1 1.6-1.7 2.7-3.4 2.4 0.1 0 0.1 0 0 0z" fill="#00B1EB"/>
    <linearGradient id="q" x1="-656.94" x2="-652.86" y1="289.8" y2="358.05" gradientTransform="matrix(.88 .48 -.48 .88 961.94 153.98)" gradientUnits="userSpaceOnUse">
	<stop stop-color="#fff" offset=".01"/>
        <stop stop-color="#fff" stop-opacity="0" offset="1"/>
</linearGradient>
    <path d="m251.8 127.9-22.7 13-20-20.6c0.7-1 1.9-1.6 3.1-1.3l37.5 7.4c0.9 0.1 1.7 0.7 2.1 1.5z" fill="url(#q)"/>
    <linearGradient id="p" x1="-682.94" x2="-591.07" y1="301.03" y2="416.53" gradientTransform="matrix(.88 .48 -.48 .88 961.94 153.98)" gradientUnits="userSpaceOnUse">
	<stop offset=".01"/>
        <stop stop-opacity=".69" offset=".08"/>
        <stop stop-opacity=".32" offset=".21"/>
        <stop stop-opacity="0" offset="1"/>
</linearGradient>
    <polygon points="221.9 133.5 209.1 146.4 244.3 153.4 237.2 136.3 229.1 140.9" fill="url(#p)"/>
    <path d="m261.7 31.8h76.3c6.2 0 11.2 5 11.2 11.2v165.2c0 6.2-5 11.2-11.2 11.2h-76.3c-6.2 0-11.2-5-11.2-11.2v-165.2c0-6.2 5-11.2 11.2-11.2z" fill="#00B1EB"/>
    <path d="m345 45.9v157.7c0 5.7-4.7 10.4-10.4 10.4h-69.6c-5.8 0-10.4-4.7-10.4-10.4v-157.7c0-5.8 4.7-10.4 10.4-10.4h10.6v0.8c0 3.2 2.6 5.9 5.9 5.9h36.1c3.2 0 5.9-2.6 5.9-5.8v-0.8h11.1c5.8-0.1 10.4 4.5 10.4 10.3z" fill="#00B1EB"/>
    <linearGradient id="o" x1="451.89" x2="450.23" y1="-317.39" y2="19.97" gradientTransform="translate(-151.03 224)" gradientUnits="userSpaceOnUse">
	<stop offset="0"/>
        <stop stop-opacity=".1" offset=".97"/>
</linearGradient>
    <path d="m345 45.9v157.7c0 5.7-4.7 10.4-10.4 10.4h-69.6c-5.8 0-10.4-4.7-10.4-10.4v-157.7c0-5.8 4.7-10.4 10.4-10.4h10.6v0.8c0 3.2 2.6 5.9 5.9 5.9h36.1c3.2 0 5.9-2.6 5.9-5.8v-0.8h11.1c5.8-0.1 10.4 4.5 10.4 10.3z" enable-background="new    " fill="url(#o)" opacity=".81"/>
    <path d="m274.7 136.3h56.2c2.8 0 5.1 2.3 5.1 5.1v13.8c0 2.8-2.3 5.1-5.1 5.1h-56.2c-2.8 0-5.1-2.3-5.1-5.1v-13.8c0-2.8 2.3-5.1 5.1-5.1z" enable-background="new    " fill="#fff" opacity=".17"/>
    <path d="m274.7 170.1h56.2c2.8 0 5.1 2.3 5.1 5.1v13.8c0 2.8-2.3 5.1-5.1 5.1h-56.2c-2.8 0-5.1-2.3-5.1-5.1v-13.8c0-2.7 2.3-5.1 5.1-5.1z" enable-background="new    " fill="#fff" opacity=".17"/>
    <linearGradient id="n" x1="412.7" x2="535.67" y1="-8.385" y2="-8.385" gradientTransform="translate(-151.03 224)" gradientUnits="userSpaceOnUse">
	<stop stop-color="#ECC4D7" offset="0"/>
        <stop stop-color="#EFD4D1" offset=".42"/>
        <stop stop-color="#F2EAC9" offset="1"/>
</linearGradient>
    <path d="m362.2 150-23.9-22.8s-8.7 6.9-5 19.3 15.8 27.4 15.8 27.4v34.3s0.1 11.2-11.2 11.2h-76.2c4.9 11.8 11.7 22.8 20.2 32.4 13.5 14.9 37.8 33.2 36.8 52.4h66s-16.9-60.2-11.1-84.7 3.6-55.1-11.4-69.5z" fill="url(#n)"/>
    <linearGradient id="m" x1="390.43" x2="417.44" y1="-138.21" y2="-138.21" gradientTransform="translate(-151.03 224)" gradientUnits="userSpaceOnUse">
	<stop stop-color="#ECC4D7" offset="0"/>
        <stop stop-color="#EFD4D1" offset=".42"/>
        <stop stop-color="#F2EAC9" offset="1"/>
</linearGradient>
    <path d="m261.2 103c-2.4-0.6-8.5-4.8-13.4-9.2-3.1-2.8-5.9-5.8-6.9-8-2.6-5.7-3.1-18.2 6.8-17.3 0 0 4-0.9 13.4 13 9.5 14 4.1 22.5 0.1 21.5z" fill="url(#m)"/>
    <linearGradient id="l" x1="387.95" x2="418.17" y1="-113.55" y2="-113.55" gradientTransform="translate(-151.03 224)" gradientUnits="userSpaceOnUse">
	<stop stop-color="#ECC4D7" offset="0"/>
        <stop stop-color="#EFD4D1" offset=".42"/>
        <stop stop-color="#F2EAC9" offset="1"/>
</linearGradient>
    <path d="m263.2 126.3c-2.5-0.2-9.6-3.3-15.3-7-3.4-2.1-6.3-4.4-7.6-6.3-3.6-5.2-6.3-17.4 3.6-18.2 0 0 1.1-0.5 4 1 2.4 1.3 6.1 3.9 11.5 9.4 11.6 12 7.8 21.3 3.8 21.1z" fill="url(#l)"/>
    <linearGradient id="k" x1="389.33" x2="412.13" y1="-84.706" y2="-84.706" gradientTransform="translate(-151.03 224)" gradientUnits="userSpaceOnUse">
	<stop stop-color="#ECC4D7" offset="0"/>
        <stop stop-color="#EFD4D1" offset=".42"/>
        <stop stop-color="#F2EAC9" offset="1"/>
</linearGradient>
    <path d="m257 156.5c-1.7-0.4-5.5-3.4-9.2-6.9-3.5-3.4-6.9-7.3-8-10-2.3-5.7-3-18.3 5.2-17.6 0 0 0.9-0.3 2.8 1.3s4.6 4.7 8.6 11.5c8.1 13.9 3.9 22.6 0.6 21.7z" fill="url(#k)"/>
    <linearGradient id="j" x1="391.34" x2="414.82" y1="-55.515" y2="-55.515" gradientTransform="translate(-151.03 224)" gradientUnits="userSpaceOnUse">
	<stop stop-color="#ECC4D7" offset="0"/>
        <stop stop-color="#EFD4D1" offset=".42"/>
        <stop stop-color="#F2EAC9" offset="1"/>
</linearGradient>
    <path d="m260.8 181.5c-2.1-0.2-8.3-3.3-12.9-6.6-1.9-1.2-3.5-2.8-4.9-4.6-2.8-4.3-5-14.3 2.6-14.9 0 0 0.6-0.3 2.3 0.5 1.8 0.8 4.9 3 9.8 8.2 9.1 10 6.2 17.7 3.1 17.4z" fill="url(#j)"/>
    <path d="m274.7 68.5h56.2c2.8 0 5.1 2.3 5.1 5.2v13.8c0 2.8-2.3 5.2-5.1 5.2h-56.2c-2.8 0-5.1-2.3-5.1-5.2v-13.8c0-2.9 2.3-5.2 5.1-5.2z" enable-background="new    " fill="#fff" opacity=".17"/>
    <path d="m274.7 102.4h56.2c2.8 0 5.1 2.3 5.1 5.2v13.8c0 2.8-2.3 5.2-5.1 5.2h-56.2c-2.8 0-5.1-2.3-5.1-5.2v-13.8c0-2.9 2.3-5.2 5.1-5.2z" enable-background="new    " fill="#fff" opacity=".17"/>
    <script xmlns=""/></svg>
