<svg xmlns="http://www.w3.org/2000/svg" xmlns:xlink="http://www.w3.org/1999/xlink" version="1.1" id="a3021eee-13c5-481a-ad89-41ba2f75e20a" x="0px" y="0px" viewBox="0 0 759.6 659" style="enable-background:new 0 0 759.6 659;" xml:space="preserve"><link xmlns="" type="text/css" rel="stylesheet" id="dark-mode-custom-link"/><link xmlns="" type="text/css" rel="stylesheet" id="dark-mode-general-link"/><style xmlns="" lang="en" type="text/css" id="dark-mode-custom-style"/><style xmlns="" lang="en" type="text/css" id="dark-mode-native-style"/><style xmlns="" lang="en" type="text/css" id="dark-mode-native-sheet"/><script xmlns=""/>
    <style type="text/css">
	.st0{fill:#3F3D56;}
	.st1{fill:#84EBAD;}
	.st2{fill:#F2F2F2;}
	.st3{fill:#CCCCCC;}
	.st4{fill:#E6E6E6;}
	.st5{opacity:0.1;fill:#6C63FF;enable-background:new    ;}
	.st6{fill:url(#SVGID_1_);}
	.st7{fill:#65617D;}
	.st8{fill:#A27772;}
	.st9{opacity:0.1;enable-background:new    ;}
	.st10{fill:#FBBEBE;}
	.st11{opacity:5.000000e-02;enable-background:new    ;}
	.st12{fill:#7C5C5C;}
	.st13{opacity:0.1;}
	.st14{fill:#FFFFFF;}
	.st15{fill:#3195FF;}
</style>
    <title>social_notifications</title>
    <rect x="-47" y="589.5" class="st0" width="823.2" height="1.5"/>
    <path class="st1" d="M145.2,516.2c1.6,57.8-30.2,79-70.1,80.2c-0.9,0-1.8,0-2.8,0.1c-1.9,0-3.7,0-5.5-0.1  c-36.1-1.6-64.7-21.9-66.1-75.7C-0.8,465,64.2,392.7,69.1,387.4c0,0,0,0,0,0c0.2-0.2,0.3-0.3,0.3-0.3S143.7,458.4,145.2,516.2z"/>
    <path class="st0" d="M72.3,587.6l25.4-40.1L72.3,592l0.1,4.5c-1.9,0-3.7,0-5.5-0.1l1.3-57.9l0-0.4l0-0.1l0.1-5.5l-27.8-42.8  l27.7,38.7l0.1,1.2l0.9-43.8l-24-44.4l24,36.7l-0.3-90.7l0-0.3l0,0.3l1.6,71.5l21.9-29L70.8,465l0.5,39.2l20.1-38.2l-20,44l0.3,21.8  l29.2-53.2l-29.2,60.8L72.3,587.6z"/>
    <path class="st0" d="M579.4,186.4h-1.1v-30.7c0-9.8-7.5-17.8-16.7-17.8c0,0,0,0,0,0h-61.3c-9.2,0-16.7,8-16.7,17.8c0,0,0,0,0,0  v168.6c0,9.8,7.5,17.8,16.7,17.8c0,0,0,0,0,0h61.3c9.2,0,16.7-8,16.7-17.8c0,0,0,0,0,0v-116h1.1V186.4z"/>
    <path class="st2" d="M574.8,156.7v168.3c0,7.3-5.6,13.3-12.5,13.3h-61.6c-6.9,0-12.5-5.9-12.5-13.3V156.7c0-7.3,5.6-13.3,12.5-13.3  h7.5c-1.2,3.2,0.2,6.9,3.3,8.2c0.7,0.3,1.5,0.5,2.2,0.5h35.1c3.3,0,5.9-2.8,5.9-6.3c0-0.8-0.1-1.6-0.4-2.4h8  C569.2,143.5,574.8,149.4,574.8,156.7z"/>
    <rect x="513.7" y="165.8" class="st3" width="52" height="2.1"/>
    <rect x="513.7" y="172.3" class="st3" width="52" height="2.1"/>
    <rect x="513.7" y="178.9" class="st3" width="52" height="2.1"/>
    <rect x="497.2" y="167.1" class="st3" width="11.8" height="12.5"/>
    <rect x="513.7" y="311.9" class="st3" width="52" height="2.1"/>
    <rect x="513.7" y="318.4" class="st3" width="52" height="2.1"/>
    <rect x="513.7" y="324.9" class="st3" width="52" height="2.1"/>
    <rect x="497.2" y="313.2" class="st3" width="11.8" height="12.5"/>
    <path class="st0" d="M705.4,374.9H557.4v-3.2h-67.1v3.2H341.8c-5.5,0-10,4.8-10,10.6l0,0v215.2c0,5.9,4.5,10.6,10,10.6h363.5  c5.5,0,10-4.8,10-10.6V385.5C715.4,379.6,710.9,374.9,705.4,374.9z"/>
    <rect x="345.2" y="393.6" class="st2" width="356.7" height="213.8"/>
    <ellipse class="st1" cx="523.3" cy="383.9" rx="3.7" ry="3.9"/>
    <path class="st0" d="M725.4,603.5h-34.8v-2.7c0-0.3-0.2-0.5-0.5-0.5l0,0h-11.9c-0.3,0-0.5,0.2-0.5,0.5l0,0v2.7h-7.5v-2.7  c0-0.3-0.2-0.5-0.5-0.5l0,0h-11.9c-0.3,0-0.5,0.2-0.5,0.5l0,0v2.7h-7.5v-2.7c0-0.3-0.2-0.5-0.5-0.5l0,0h-11.9  c-0.3,0-0.5,0.2-0.5,0.5l0,0v2.7h-7.5v-2.7c0-0.3-0.2-0.5-0.5-0.5l0,0H617c-0.3,0-0.5,0.2-0.5,0.5l0,0v2.7H609v-2.7  c0-0.3-0.2-0.5-0.5-0.5l0,0h-11.9c-0.3,0-0.5,0.2-0.5,0.5l0,0v2.7h-7.5v-2.7c0-0.3-0.2-0.5-0.5-0.5l0,0h-11.9  c-0.3,0-0.5,0.2-0.5,0.5l0,0v2.7h-7.5v-2.7c0-0.3-0.2-0.5-0.5-0.5l0,0h-93.5c-0.3,0-0.5,0.2-0.5,0.5l0,0v2.7h-7.5v-2.7  c0-0.3-0.2-0.5-0.5-0.5l0,0h-11.9c-0.3,0-0.5,0.2-0.5,0.5v0v2.7h-7.5v-2.7c0-0.3-0.2-0.5-0.5-0.5l0,0h-11.9c-0.3,0-0.5,0.2-0.5,0.5  l0,0v2.7h-7.5v-2.7c0-0.3-0.2-0.5-0.5-0.5c0,0,0,0,0,0h-11.9c-0.3,0-0.5,0.2-0.5,0.5l0,0v2.7h-7.5v-2.7c0-0.3-0.2-0.5-0.5-0.5  c0,0,0,0,0,0h-11.9c-0.3,0-0.5,0.2-0.5,0.5l0,0v2.7h-7.5v-2.7c0-0.3-0.2-0.5-0.5-0.5c0,0,0,0,0,0h-11.9c-0.3,0-0.5,0.2-0.5,0.5l0,0  v2.7h-7.5v-2.7c0-0.3-0.2-0.5-0.5-0.5c0,0,0,0,0,0h-11.9c-0.3,0-0.5,0.2-0.5,0.5v0v2.7h-22.9c-6.6,0-11.9,5.7-11.9,12.7v5.7  c0,7,5.3,12.7,11.9,12.7h396.9c6.6,0,11.9-5.7,11.9-12.7v-5.7C737.3,609.2,732,603.5,725.4,603.5  C725.4,603.5,725.4,603.5,725.4,603.5z"/>
    <rect x="489.1" y="410.4" class="st4" width="100.1" height="4"/>
    <rect x="489.1" y="422.9" class="st4" width="100.1" height="4"/>
    <rect x="489.1" y="435.4" class="st4" width="100.1" height="4"/>
    <rect x="489.1" y="410.4" class="st3" width="100.1" height="4"/>
    <rect x="489.1" y="422.9" class="st3" width="100.1" height="4"/>
    <rect x="489.1" y="435.4" class="st3" width="100.1" height="4"/>
    <rect x="457.4" y="412.8" class="st3" width="22.7" height="24.1"/>
    <rect x="489.1" y="551.2" class="st3" width="100.1" height="4"/>
    <rect x="489.1" y="563.7" class="st3" width="100.1" height="4"/>
    <rect x="489.1" y="576.2" class="st3" width="100.1" height="4"/>
    <rect x="457.4" y="553.6" class="st3" width="22.7" height="24.1"/>
    <path class="st0" d="M624.2,292.9c-5.9-6.8-13.8-11.2-22.4-12.6l3.7-3.5l-4.1-0.2l-5,4.8l4.6,5.4l4.1,0.2l-3.1-3.6  c19.1,3.3,32,22.3,29,42.6c-2.7,18-17.4,31.2-34.5,31.2v3c20.9,0,37.8-18,37.8-40.2C634.2,310,630.7,300.3,624.2,292.9z"/>
    <ellipse class="st5" cx="207.6" cy="626" rx="96.2" ry="8.4"/>
    <linearGradient id="SVGID_1_" gradientUnits="userSpaceOnUse" x1="144.0098" y1="376.757" x2="144.0098" y2="819.4789" gradientTransform="matrix(-1 0 0 -1 347.5225 1005.86)">
	<stop offset="0" style="stop-color:#808080;stop-opacity:0.25"/>
        <stop offset="0.54" style="stop-color:#808080;stop-opacity:0.12"/>
        <stop offset="1" style="stop-color:#808080;stop-opacity:0.1"/>
</linearGradient>
    <path class="st6" d="M130.2,301.3v13.6c0,0,4,42.7,16.9,47.4c1.3,0.5,2.6,0.8,3.9,1.1c-0.5,3.9-0.9,7.5-1.3,10.4  c-1.5,12.2-5.5,31.3-5.5,31.3l0.8,0.2c0,0.3-0.1,0.5-0.1,0.8c-1.3,11.3,0.2,29.7,0.2,29.7s2.1,13.6,4.9,27.6c1.7,8.4,1.7,17,0,25.4  c0.9,9.8,0.1,19.7-2.6,29.1c-0.2,0.6-0.4,1.3-0.6,2l0,0c-4.6,17.2,1.7,43.4,4.7,55.4c2.8,11.1,3.8,24,4,26.8  c-0.6,0.9-0.8,2.1-0.6,3.2c1.3,5.6-3.3,13.8-3.3,13.8c-0.4,0.5-0.6,1.1-0.9,1.6c-0.9,2.1-0.5,4.4,0.9,6.2c3,4.1,20.6,2.3,23.5,1.1  c1.8-0.8,1.7-4.4,1.2-8.1c-0.3-2.3-0.7-4.7-0.9-6.5c-0.4-3.1,0.4-8.3,1-11.3l0.2-0.1l-0.1-0.5c0.2-1.1,0.4-1.7,0.4-1.7  s-0.2,0.2-0.6,0.5l-4.7-23.9c3.6-15.1,0-55.6,0-55.6s8.2-15.7,8.9-39.5c0.7-23.5,6.2-31.1,6.4-31.3l0,0c11.5,6.2,26,72.8,26,72.8  c-1.2,16.2,0.3,41,5,54.4c2.9,8.5,4.1,17.5,3.5,26.6c0.5,0.4,1,0.7,1.5,0.9c-0.3,2.9-0.9,7.4-2.1,9l0,0c-0.5,0.8-0.7,1.6-0.6,2.5  c0.3,2.6,2.2,4.6,4.6,4.9c6.5,1,22.1,3.5,26.1,5.5c5,2.5,24.9,0.8,25.8-1.7c0.3-1,0.1-2.1-0.4-3c-0.6-1.6-1.8-2.8-3.2-3.6  c-0.4-0.3-0.9-0.5-1.4-0.7c-3.8-1.3-10.8-4.1-12.7-6.9c0,0-8.8-8-11.3-12.3c-1-1.7-2.7-2.9-4.6-3h-0.2c-0.5-12.6-2.8-70.5-4.5-72.9  c-1.9-2.7,0-18.4,0-18.4l-3.1-25.4c0,0,0.5-43-4-50.4c-3.9-6.4-4.7-17.7-5-20.7c0-0.5,0-0.8,0-0.8c1.3-0.6,1.6-1.5,0-2.9  c-5.9-4.9-7.5-45.5-7.7-50.2v-0.5c0.4,0.1,4.4,1.1,14.5-1.3c10.7-2.5,11.9-27.6,6.7-38.5c-3.3-6.9-3.7-12.1-3.5-15.1  c0.2-3.4-0.1-6.8-0.8-10.1c-4.6-19.9-17.4-18.3-17.4-18.3l-21.3-9c-2.4-2.3-3.3-5.4-3.3-8.4c0-0.2,0-0.5,0-0.8  c9.9-3.3,16.7-13,16.8-24.1c0-5.5-1.8-10.9-5-15.3l-0.1-0.2c0-0.1,0.1-0.2,0.1-0.3c0.2-0.8,0.1-1.7,0.4-2.5c0.6-2,2.6-2.9,3.9-4.4  c1.3-1.6,2.1-3.6,2.1-5.7l0,0v-0.3c0-2-0.5-3.8-1.4-5.6c-1.6-2.9-4.5-5.3-7.7-4.7c-1.9,0.3-3.6,1.8-5.5,1.9c-1.9,0.1-3.6-1-5.3-1.8  c-4.1-2-8.8-2.3-13.2-1.2c-1.3,0.2-2.6,0.9-3.6,1.9c-0.6,0.9-1.3,1.9-1.9,2.9c-2.3,3-6.2,3.5-9.8,4.2c-3.5,0.7-7.6,2.1-8.7,5.6  c-0.3,0.8-0.4,1.7-0.4,2.6c0.1,1.7,0.3,3.4,0.7,5v0.1v-0.1c0.1,0.5,0.1,0.9-0.1,1.3c-0.6,0.9-1.9,0.5-3,0.8  c-2.1,0.5-2.6,3.2-2.6,5.3c-0.1,2.5-0.1,4.9-0.2,7.4c0,0.2,0,0.5,0,0.8c0,0.7,0.1,1.4,0.2,2.1c0.5,1.3,1.1,2.4,2.1,3.4l7.9,9.9  c3.1,3.8,6.4,8.2,6.6,13.1v-0.1c0,0.4,0,0.8,0,1.1c-0.9,2-2.1,3.7-3.8,5l-0.3,0.2c0,0-5.7,2.3-20.7,11.4  C126.3,280.2,130.6,301,130.2,301.3z M238,600.6L238,600.6c0,0-0.2,0.2-0.6,0.4L238,600.6z"/>
    <path class="st7" d="M151.6,488.7c1.7-8.3,1.7-16.9,0-25.2c-2.8-13.9-4.7-27.5-4.7-27.5s-1.6-18.4-0.2-29.6c0.5-3.7,1.2-6.6,2.4-7.8  c4.9-5.2,70.2,0,70.2,0l6.7,8.6c0,0,0,0.3,0,0.8c0.2,2.9,1.1,14.2,4.9,20.6c4.5,7.5,4,50.3,4,50.3l3,25.2c0,0-1.9,15.6,0,18.3  c1.9,2.7,4.5,75,4.5,75s-8,6.1-14.7,7.2c-2.5,0.5-4.7,0.2-6.4-1.3c0.6-9-0.6-18-3.5-26.5c-4.7-13.3-6-38.1-4.9-54.2  c0,0-14.2-66.4-25.4-72.6l0,0c-0.2,0.2-5.6,7.8-6.3,31.2c-0.7,23.8-8.6,39.4-8.6,39.4s3.5,40.4,0,55.5l4.9,25.5  c0,0-8.6,2.5-20.5,0.5c0,0-0.9-14.8-4-27.3c-3-12.4-9.6-40.1-4-57.2C151.7,508.2,152.6,498.3,151.6,488.7z"/>
    <path class="st8" d="M152.4,620.2c0.2-0.6,0.5-1.1,0.9-1.6c0,0,4.5-8.1,3.3-13.8c-0.9-4.1,4.1-7,7.2-8.4c1.9-0.9,4-1.1,6-0.4  c1.5,0.5,2.9,1.5,3.3,3.4c0.9,4.4,4.7,0,4.7,0s-1.9,9-1.4,13.5c0.1,1.7,0.6,4.1,0.9,6.4c0.5,3.6,0.6,7.2-1.1,8  c-2.9,1.3-20.1,3-23-1.1C151.8,624.5,151.5,622.1,152.4,620.2z"/>
    <path class="st9" d="M152.2,620c3.7,0.3,7.4,0.4,11.1,0.2c1.3,0,2.5,0,3.7,0.2c5.2,0.5,8.4-0.2,10.2-1.1c0.5,3.6,0.6,7.2-1.1,8  c-2.9,1.3-20.1,3-23-1.1C151.8,624.5,151.5,622.1,152.2,620z"/>
    <path class="st9" d="M187.6,449.9l4.1-4.7c0,0,20.4,27.9,24.8,68.4c3.8,35.5,9.8,80.5,11.2,91c-2.5,0.5-4.7,0.2-6.4-1.3  c0.6-9-0.6-18-3.5-26.5c-4.7-13.3-6-38.1-4.9-54.2C213,522.5,198.7,456.2,187.6,449.9z"/>
    <path class="st10" d="M163.3,260.5c2.5-2,5.5-6.3,5.3-15.1c-0.2-4.4-0.9-8.7-2.1-13l30.1,10c-1.4,3.3-2.2,6.9-2.3,10.6  c0.1,3.3,0.9,6.6,3.8,9c1.5,1.1,3.1,2,4.9,2.3c14.7,3.8-8.7,29.7-8.7,29.7L177,302l-14-24.8l-2.8-14.8  C161.3,261.9,162.3,261.4,163.3,260.5z"/>
    <path class="st9" d="M196.5,242.7c-1.5,3.3-2.3,6.9-2.4,10.6c-8.3,2.9-17.4,0.6-23.7-5.8c-0.6-0.6-1.2-1.3-1.8-2  c-0.2-4.4-0.9-8.7-2.1-13L196.5,242.7z"/>
    <path class="st10" d="M163.1,228.3c0-13.9,10.7-25.1,23.7-25l0,0c13.1,0,23.7,11.4,23.7,25.3c0,13.9-10.7,25.2-23.8,25.2  S163,242.4,163,228.5C163,228.4,163,228.3,163.1,228.3z"/>
    <path class="st9" d="M163.3,260.4c2.1,3.6,15.1,25.1,22.2,26.3c0,0,2.9,1.3,4.2-0.8c0,0,10.9-16.1,8.3-23.9c1.5,1.1,3.1,2,4.9,2.3  c14.7,3.8-8.7,29.7-8.7,29.7L177,302l-14-24.8l-2.8-14.8C161.3,261.9,162.3,261.4,163.3,260.4z"/>
    <path class="st9" d="M149.1,398.4c4.9-5.2,70.2,0,70.2,0l6.7,8.6c0,0,0,0.3,0,0.8c-3.6,1.8-15.5,1.1-15.5,1.1s-18.6,1-28.1,2.5  c-8.6,1.4-31.6-4.1-35.7-5C147.1,402.6,147.9,399.8,149.1,398.4z"/>
    <path class="st1" d="M185.5,287.8C177.7,286.5,163,261,163,261s-5.5,2.2-20.2,11.4c-14.7,9.1-10.5,29.8-10.5,29.8l23.7,34.2  c0,0-3.3,25.8-4.7,37.9c-1.4,12.1-5.4,31.2-5.4,31.2s26.8,6.7,36.4,5.2s28.1-2.5,28.1-2.5s21.5,1.2,15.5-4c-6-5.2-7.4-50.5-7.4-50.5  s3.8,1.3,14.2-1.2c10.5-2.5,11.6-27.5,6.5-38.4c-3.2-6.8-3.5-12-3.4-15.1c0.2-3.4-0.1-6.8-0.8-10.1c-4.5-19.8-17-18.2-17-18.2  l-20.8-9c4.6,7.1-7.7,25.1-7.7,25.1C188.4,288.8,185.5,287.5,185.5,287.8z"/>
    <path class="st9" d="M215.1,315.8c-0.5,3.5,5.8,10.6,5.8,10.6h-11.7c0,0,5.1-17.9,6.5-21.1c1.4-3.2,1.2-11.4,1.2-11.4  S215.6,312.4,215.1,315.8z"/>
    <path class="st10" d="M182.4,345.3c7-1.2,21.9-13.9,21.9-13.9l12.5-10.5l2.7,3.9c0,0-6.6,12.8-9,18.4c-2.4,5.6-28.1,12.3-28.1,12.3  S175.4,346.5,182.4,345.3z"/>
    <path class="st11" d="M182.4,345.3c7-1.2,21.9-13.9,21.9-13.9l12.5-10.5l2.7,3.9c0,0-6.6,12.8-9,18.4c-2.4,5.6-28.1,12.3-28.1,12.3  S175.4,346.5,182.4,345.3z"/>
    <path class="st10" d="M161,328.6c4,1.6,7.6-3.4,11.8-4.5c8.5-2.3,12,1,15,2c3,1.1,10.2,0.5,11.8,0.3h0.4l6.7,6.4l-7.2,17.3l-1.1-0.7  l-4.2-2.5c-9.7-5.7-20.6-8.7-31.7-8.7h-2.3v-14.8L161,328.6z"/>
    <path class="st9" d="M151.9,279.7c10.5,0.5,7.4,23.8,7.4,23.8c4.7,7.4,4.4,32.4,4.4,32.4s21.3,5.9,24,6.9s-3.1,17.3-3.1,17.3  s-22.5,7.4-35.1,2.7c-12.5-4.7-16.5-47.3-16.5-47.3v-13.5l4.7-5.6C137.7,296.5,141.4,279.2,151.9,279.7z"/>
    <path class="st1" d="M151.2,279.7c10.5,0.5,7.4,23.8,7.4,23.8c4.7,7.4,4.4,32.4,4.4,32.4s21.2,5.9,24,6.9c2.8,1-3,17.3-3,17.3  s-22.5,7.4-35.1,2.7c-12.5-4.7-16.5-47.3-16.5-47.3v-13.5l4.7-5.6C137,296.5,140.7,279.2,151.2,279.7z"/>
    <path class="st9" d="M170.3,246.8c-0.9-1-1.8-2-2.6-3.2c-7.9-11.1-5.8-27,4.7-35.4c10.5-8.4,25.4-6.2,33.3,5v0.1  c-0.4,1.7-1.8,2.9-3.3,3.1c-1.8,0.3-3.5-0.6-4.8-1.8c-1.2-1.2-2.8-2-4.5-2c-2.6-0.1-6.4,0.9-8,3.1c-1.3,1.8-1.3,4.2-1.3,6.5  c0,2,0,4.1,0,6.2c0,1.9,0,3.8-0.8,5.4c-0.8,1.7-2.6,2.9-4.3,2.3c-2-0.7-2.8-3.4-4.8-3.9c-1.5-0.4-3,0.8-3.7,2.3  c-0.6,1.5-0.8,3.2-0.6,4.8C169.7,241.7,169.9,244.3,170.3,246.8z"/>
    <path class="st12" d="M197.5,213.7c-1.2-1.2-2.8-2-4.5-2c-2.6-0.1-6.4,0.9-8,3.1c-1.3,1.8-1.3,4.2-1.3,6.5v6.2c0,1.8,0,3.7-0.8,5.3  c-0.8,1.7-2.6,2.9-4.3,2.3c-2-0.7-2.8-3.4-4.8-3.9c-1.5-0.4-3,0.8-3.7,2.3c-0.6,1.5-0.8,3.2-0.6,4.8c0.1,3.3,0.6,6.6,1.2,9.7  c0.4,1.8,0.8,3.8,0.3,5.6c-0.5,1.7-2.4,3.2-4,2.5c0.6-5.6-3-10.7-6.4-15.1l-7.7-9.8c-0.9-1-1.6-2.1-2-3.4c-0.2-0.9-0.3-1.8-0.2-2.7  c0.1-2.4,0.1-4.9,0.2-7.3c0.1-2.1,0.6-4.8,2.6-5.3c1-0.2,2.3,0.2,2.9-0.8c0.1-0.5,0.2-1,0.1-1.5c-0.4-2.4-1.2-5-0.4-7.3  c1.1-3.5,5-5,8.5-5.6s7.3-1.3,9.5-4.2c0.6-1,1.2-2,1.9-2.9c1-1,2.2-1.6,3.5-1.9c4.3-1.2,8.9-0.8,12.9,1.2c1.6,0.8,3.3,1.9,5.2,1.8  s3.5-1.5,5.5-1.9c3-0.5,6,1.9,7.4,4.7c1.9,3.5,2.1,8.4-0.6,11.4c-1.3,1.5-3.3,2.5-3.8,4.4c-0.2,0.8-0.1,1.6-0.4,2.4  c-0.4,1.7-1.8,2.9-3.3,3.1C200.5,216,198.9,215.1,197.5,213.7z"/>
    <path class="st9" d="M189.7,325.2l7.3-31.8C183.9,325.2,189.7,325.2,189.7,325.2z"/>
    <path class="st9" d="M176.1,322l1.8-0.2c3.8-17.2-5.8-33.8-5.8-33.8C179.3,314,176.1,322,176.1,322z"/>
    <path class="st9" d="M153.4,387.6c0.9-9.6,12.6-5.4,12.6-5.4C155.6,381,153.4,387.6,153.4,387.6z"/>
    <path class="st9" d="M220,327.2l-1.4,27.3c-12,0.7-20.5-3-20.5-3c4.2-6.9,1.8-24.2,1.8-24.2H220z"/>
    <path class="st9" d="M199.6,326.5L199.6,326.5h0.4l6.7,6.4l-7.2,17.3l-1.1-0.7C201.5,342.2,199.6,327.3,199.6,326.5z"/>
    <path class="st1" d="M226.7,326.5l-8.2,27.3c-12,0.7-20.5-3-20.5-3c4.2-6.9,1.8-24.2,1.8-24.2H226.7z"/>
    <path class="st8" d="M220.6,613.1L220.6,613.1c1.8-2.5,2.3-11.6,2.3-11.6c3,5.9,14.2-0.8,14.2-0.8c0.9-4.7,3.2-5.8,5.2-5.7  c1.8,0.1,3.5,1.2,4.5,2.9c2.5,4.3,11.1,12.3,11.1,12.3c1.9,2.9,8.8,5.6,12.4,6.9c0.5,0.2,1,0.4,1.4,0.7c1.3,0.8,2.5,2,3.1,3.5  c0.5,0.9,0.6,2,0.4,3c-0.9,2.5-20.3,4.2-25.2,1.7c-3.9-2-19.1-4.5-25.4-5.5c-2.4-0.3-4.3-2.3-4.5-4.9  C219.9,614.7,220.1,613.8,220.6,613.1z"/>
    <path class="st9" d="M220.6,613.2L220.6,613.2c3.5,1.7,10.8,4.1,25.5,6.5c15.5,2.5,22.4,0.4,25.6-1.9c1.3,0.8,2.5,2,3.1,3.5  c0.5,0.9,0.6,2,0.4,3c-0.9,2.5-20.3,4.2-25.2,1.7c-3.9-2-19.1-4.5-25.4-5.5c-2.4-0.3-4.3-2.3-4.5-4.9  C219.9,614.7,220.1,613.8,220.6,613.2z"/>
    <g class="st13">
	<path d="M156.5,209.4c-0.4-1.5-0.6-3-0.7-4.5c-0.1,1.9,0.4,3.8,0.7,5.6v0.2C156.5,210.4,156.5,209.9,156.5,209.4z"/>
        <path d="M173.8,231.7c2,0.5,2.8,3.2,4.8,3.9c1.6,0.5,3.5-0.8,4.3-2.3c0.8-1.7,0.8-3.6,0.8-5.4c0-2,0-4.1,0-6.2   c0-2.3,0.1-4.7,1.3-6.5c1.6-2.2,5.5-3.2,8-3.1c1.7,0,3.3,0.8,4.5,2c1.4,1.2,3,2.1,4.8,1.8c1.6-0.3,2.8-1.4,3.3-3.1   c0.2-0.8,0.1-1.7,0.4-2.5c0.6-2,2.6-2.9,3.8-4.4c1.5-1.7,2.2-4,2-6.3c-0.1,2-0.8,3.8-2,5.3c-1.3,1.5-3.3,2.5-3.8,4.4   c-0.2,0.8-0.1,1.7-0.4,2.5c-0.4,1.7-1.8,2.9-3.3,3.1c-1.8,0.3-3.5-0.6-4.8-1.8c-1.2-1.2-2.8-2-4.5-2c-2.6-0.1-6.4,0.9-8,3.1   c-1.3,1.8-1.3,4.2-1.3,6.5c0,2,0,4.1,0,6.2c0,1.9,0,3.8-0.8,5.4c-0.8,1.7-2.6,2.9-4.3,2.3c-2-0.7-2.8-3.4-4.8-3.9   c-1.5-0.4-3,0.8-3.7,2.3c-0.5,1.2-0.6,2.6-0.6,3.9c0-1,0.2-2,0.6-2.9C170.7,232.5,172.3,231.3,173.8,231.7z"/>
        <path d="M150.7,225.5c-0.1,0.9,0,1.8,0.2,2.7c0.4,1.3,1.1,2.4,2,3.4l7.7,9.8c3,3.8,6.2,8.3,6.4,13.1c0.3-5.3-3.1-10.1-6.4-14.2   l-7.7-9.8c-0.9-1-1.6-2.1-2-3.4C150.8,226.5,150.7,226,150.7,225.5z"/>
        <path d="M167,255.4c0,0.3,0,0.7-0.1,1.1c1.6,0.8,3.5-0.7,4-2.5c0.2-0.8,0.3-1.6,0.2-2.4c0,0.5-0.1,0.9-0.2,1.4   C170.5,254.6,168.6,256.1,167,255.4z"/>
</g>
    <path class="st9" d="M237.2,600.7c8.9,4,11.3-0.5,11.3-0.5"/>
    <path class="st9" d="M156.6,604.4c9.6,6.4,17.2-3.2,17.2-3.2"/>
    <path class="st9" d="M154.4,492.8c0,0,2.9,3.6,2.8,1.5c-0.1-2.1-5.5-5.6-5.5-5.6L154.4,492.8z"/>
    <path class="st9" d="M157.2,522.9c2.6,1.7,3-3.8-1.1-4.1c-2.4-0.2-4.7-1.1-6.6-2.8C149.5,516,154.6,521.2,157.2,522.9z"/>
    <path class="st9" d="M153.2,530.4c-2.1,2.6-4.7-10.8-4.7-10.8"/>
    <g>
	<path class="st14" d="M211.3,302.8c-0.2,0-0.4,0-0.6,0c-0.1,0-0.1,0-0.1,0c-0.1,0-0.3-0.1-0.4-0.2c-0.1-0.1-0.3-0.2-0.4-0.3   c-0.3-0.3-0.4-0.7-0.5-1.1c0-0.1,0-0.2,0-0.2c0-2.4,0-4.8,0-7.2c0-0.3,0.1-0.6,0.2-0.9c0.2-0.5,0.5-0.8,0.9-0.9   c0.1-0.1,0.2-0.1,0.4-0.1l0,0c0.2,0,0.4,0,0.6,0c0.1,0,0.1,0,0.1,0c0.3,0.1,0.5,0.2,0.7,0.4c0.3,0.2,0.4,0.6,0.5,1   c0,0.1,0.1,0.2,0.1,0.3l0,0c0,2.5,0,5,0,7.5c0,0.1,0,0.2,0,0.2c-0.1,0.3-0.1,0.5-0.3,0.8c-0.1,0.2-0.3,0.4-0.4,0.5   c-0.2,0.2-0.4,0.2-0.6,0.2C211.3,302.8,211.3,302.8,211.3,302.8z"/>
        <path class="st14" d="M206.9,302.8L206.9,302.8c-0.1,0-0.2,0-0.3-0.1c-0.1,0-0.2-0.1-0.3-0.2c-0.1-0.1-0.2-0.2-0.3-0.2   c-0.1-0.2-0.2-0.2-0.3-0.4c-0.1-0.2-0.2-0.4-0.2-0.6c0-0.1,0-0.2,0-0.3s0-0.2,0-0.3c0-2.3,0-4.7,0-7c0-0.2,0-0.3,0.1-0.5   c0-0.2,0.1-0.3,0.1-0.5c0.1-0.2,0.1-0.2,0.2-0.4c0.1-0.2,0.2-0.2,0.4-0.3c0.1-0.1,0.3-0.2,0.4-0.2c0.1,0,0.1-0.1,0.3-0.1l0,0   c0.2,0,0.4,0,0.6,0c0.1,0,0.1,0,0.1,0c0.3,0.1,0.5,0.2,0.7,0.4c0.1,0.2,0.3,0.3,0.4,0.5c0.1,0.2,0.1,0.5,0.2,0.7c0,0.1,0,0.1,0,0.2   c0,2.4,0,4.9,0,7.3c0,0.2-0.1,0.5-0.1,0.7c-0.1,0.2-0.1,0.3-0.3,0.5c-0.1,0.2-0.3,0.3-0.4,0.4c-0.1,0.1-0.3,0.2-0.5,0.2   c-0.1,0-0.1,0-0.1,0l0,0C207.3,302.8,207.1,302.8,206.9,302.8z"/>
        <path class="st14" d="M199.3,300.1c0-0.1,0-0.1,0.1-0.2c0-0.2,0.1-0.2,0.1-0.4c0.1-0.1,0.1-0.2,0.2-0.3c0.1-0.1,0.1-0.2,0.2-0.2   c1.8-2,3.5-4.1,5.2-6l0,0l0,0c0,2,0,4,0,6c0,0,0,0,0,0.1c-0.9,1.1-1.8,2.1-2.7,3.2c-0.1,0.2-0.2,0.2-0.4,0.3s-0.3,0.2-0.5,0.2   c-0.1,0-0.1,0-0.2,0s-0.1,0-0.1,0c-0.1,0-0.4,0-0.5-0.1c-0.1-0.1-0.3-0.2-0.4-0.2c-0.1-0.1-0.1-0.2-0.2-0.2   c-0.1-0.2-0.2-0.2-0.4-0.4c-0.1-0.2-0.2-0.2-0.3-0.4c-0.1-0.2-0.1-0.3-0.1-0.5l0,0C199.3,300.6,199.3,300.4,199.3,300.1z"/>
</g>
    <path class="st15" d="M550.2,265.2h-37.4c-2.6,0-4.6-2.2-4.6-5v-18.4c0-0.5,0.2-1.1,0.6-1.4l19.8-20.2c1.6-1.7,4.2-1.7,5.9,0  l18.9,19.2c1,1,1.5,2.3,1.5,3.7v17C554.8,263,552.8,265.2,550.2,265.2C550.2,265.2,550.2,265.2,550.2,265.2z"/>
    <path class="st9" d="M508.2,242.1h46.2l0,0v16.1c0,3.8-2.9,6.9-6.4,6.9c0,0,0,0,0,0h-33.3c-3.6,0-6.4-3.1-6.4-6.9v0V242.1  L508.2,242.1z"/>
    <path class="st14" d="M516.8,226.3h29.3c1.4,0,2.5,1.2,2.5,2.7v31.5c0,1.5-1.1,2.7-2.5,2.7h-29.3c-1.4,0-2.5-1.2-2.5-2.7v-31.5  C514.3,227.6,515.4,226.3,516.8,226.3z"/>
    <polygon class="st9" points="548.7,243 548.7,263.3 514.3,263.3 514.3,243 531.5,251.9 "/>
    <path class="st15" d="M531.5,253.1l-22-11.4c-0.4-0.2-1,0-1.2,0.4c-0.1,0.1-0.1,0.3-0.1,0.4v19.7c0,1.7,1.2,3,2.8,3h41  c1.5,0,2.8-1.3,2.8-3v-19.4c0-0.6-0.5-1.2-1.1-1.2c-0.2,0-0.3,0-0.5,0.1L531.5,253.1z"/>
    <rect x="517.3" y="229.7" class="st0" width="9.6" height="1.5"/>
    <rect x="516.5" y="235" class="st0" width="28.5" height="0.8"/>
    <rect x="516.5" y="237.9" class="st0" width="28.5" height="0.8"/>
    <rect x="516.5" y="240.7" class="st0" width="28.5" height="0.8"/>
    <path class="st15" d="M560.5,535.1h-60.2c-4.1,0-7.4-3.8-7.4-8.6v-31.7c0-0.9,0.3-1.8,0.9-2.5l31.9-34.8c2.6-2.9,6.8-2.9,9.4,0  l30.4,33.2c1.5,1.7,2.4,4,2.4,6.4v29.4C567.9,531.3,564.6,535.1,560.5,535.1C560.5,535.1,560.5,535.1,560.5,535.1z"/>
    <path class="st9" d="M492.8,495.4h74.4l0,0v27.8c0,6.6-4.6,11.9-10.4,11.9c0,0,0,0,0,0h-53.7c-5.7,0-10.4-5.3-10.4-11.9v0V495.4  L492.8,495.4z"/>
    <path class="st14" d="M506.7,468.1h47.2c2.3,0,4.1,2.1,4.1,4.7v54.3c0,2.6-1.8,4.7-4.1,4.7h-47.2c-2.3,0-4.1-2.1-4.1-4.7v-54.3  C502.6,470.2,504.4,468.1,506.7,468.1z"/>
    <polygon class="st9" points="558,496.8 558,531.8 502.6,531.8 502.6,496.8 530.3,512.2 "/>
    <path class="st15" d="M530.3,514.2l-35.5-19.7c-0.7-0.4-1.6-0.1-1.9,0.8c-0.1,0.2-0.1,0.5-0.1,0.7v34c0,2.9,2,5.2,4.5,5.2h66.1  c2.5,0,4.5-2.3,4.5-5.2v-33.4c0-1.1-0.8-2-1.8-2c-0.3,0-0.5,0.1-0.8,0.2L530.3,514.2z"/>
    <rect x="507.4" y="473.9" class="st0" width="15.5" height="2.5"/>
    <rect x="506.1" y="483.1" class="st0" width="46" height="1.4"/>
    <rect x="506.1" y="488" class="st0" width="46" height="1.4"/>
    <rect x="506.1" y="492.8" class="st0" width="46" height="1.4"/>
    <script xmlns=""/></svg>
