<?xml version="1.0" encoding="iso-8859-1"?>
<!-- Uploaded to: SVG Repo, www.svgrepo.com, Generator: SVG Repo Mixer Tools -->
<!DOCTYPE svg PUBLIC "-//W3C//DTD SVG 1.1//EN" "http://www.w3.org/Graphics/SVG/1.1/DTD/svg11.dtd">
<svg fill="#5e60ce" height="800px" width="800px" version="1.1" id="Capa_1" xmlns="http://www.w3.org/2000/svg" xmlns:xlink="http://www.w3.org/1999/xlink"
	 viewBox="0 0 425.537 425.537" xml:space="preserve">
<g>
	<path d="M388.651,107.176c0-28.622-11.146-55.537-31.383-75.788C337.04,11.147,310.127,0,281.487,0
		c-25.417,0-49.481,8.783-68.722,24.911C170.701-10.279,107.776-8.12,68.269,31.388c-20.238,20.251-31.383,47.166-31.383,75.788
		c0,28.626,11.146,55.539,31.385,75.778l75.452,75.451v115.386c0,23.18,18.858,42.038,42.038,42.038h0.151
		c0.156,5.387,4.561,9.708,9.985,9.708h33.743c5.425,0,9.83-4.322,9.985-9.708h0.152c23.18,0,42.038-18.858,42.038-42.038V258.404
		l75.451-75.451C377.504,162.714,388.651,135.802,388.651,107.176z M193.165,224.395c0-2.206,1.794-4,4-4h31.206
		c2.206,0,4,1.794,4,4v21.96h-39.207V224.395z M163.723,346.344v-17.09l98.092,20.171v17.09L163.723,346.344z M163.723,308.836
		v-17.09l98.092,20.171v17.09L163.723,308.836z M261.814,266.357v25.141l-98.092-20.171v-4.971H261.814z M239.777,395.828H185.76
		c-12.151,0-22.038-9.886-22.038-22.038v-7.028l94.289,19.389C254.043,391.987,247.35,395.828,239.777,395.828z M265.579,246.355
		h-13.207v-21.96c0-9.559-5.619-17.828-13.726-21.685v-53.555l26.958-26.958c3.905-3.905,3.905-10.237,0-14.143
		s-10.237-3.905-14.143,0l-29.887,29.887c-1.875,1.875-2.929,4.419-2.929,7.071v55.381h-11.755v-55.381
		c0-2.652-1.054-5.196-2.929-7.071l-29.887-29.887c-3.905-3.905-10.237-3.905-14.143,0c-3.905,3.905-3.905,10.237,0,14.143
		l26.958,26.958v53.555c-8.107,3.857-13.726,12.126-13.726,21.685v21.96h-13.207l-77.544-77.544
		c-16.462-16.462-25.528-38.351-25.528-61.636c0-23.282,9.067-45.177,25.528-61.648c33.989-33.99,89.294-33.99,123.284,0
		c1.875,1.875,4.419,2.929,7.071,2.929s5.196-1.054,7.071-2.929C236.301,29.066,258.194,20,281.487,20
		c23.295,0,45.184,9.065,61.634,25.525c16.463,16.474,25.53,38.368,25.53,61.65c0,23.285-9.066,45.174-25.528,61.635
		L265.579,246.355z"/>
	<path d="M144.055,30.499c-5.523,0-10,4.477-10,10s4.477,10,10,10c15.139,0,29.371,5.895,40.074,16.597
		c1.953,1.953,4.512,2.929,7.071,2.929s5.119-0.977,7.071-2.929c3.905-3.905,3.905-10.237,0-14.142
		C183.79,38.474,164.536,30.499,144.055,30.499z"/>
	<path d="M106.897,40.068c-6.224,3.456-11.96,7.789-17.049,12.878c-3.905,3.905-3.906,10.236,0,14.142
		c1.953,1.953,4.512,2.929,7.071,2.929c2.559,0,5.118-0.976,7.071-2.929c3.774-3.774,8.02-6.982,12.618-9.536
		c4.828-2.681,6.569-8.769,3.887-13.597C117.813,39.128,111.726,37.387,106.897,40.068z"/>
	<path d="M335.691,52.949c-11.27-11.278-25.475-18.655-41.079-21.333c-5.442-0.931-10.613,2.721-11.548,8.164
		c-0.934,5.443,2.721,10.613,8.164,11.548c11.504,1.975,21.987,7.424,30.316,15.759c10.707,10.714,16.604,24.952,16.604,40.089
		c0,3.761-0.367,7.517-1.089,11.163c-1.074,5.417,2.447,10.68,7.864,11.754c0.657,0.13,1.311,0.193,1.956,0.193
		c4.676,0,8.854-3.296,9.798-8.057c0.976-4.924,1.471-9.988,1.471-15.052C358.148,86.698,350.173,67.44,335.691,52.949z"/>
	<path d="M258.331,34.046c-7.267,2.292-14.137,5.66-20.417,10.012c-4.54,3.145-5.67,9.375-2.524,13.915
		c1.942,2.802,5.059,4.306,8.229,4.306c1.964,0,3.949-0.578,5.687-1.781c4.629-3.208,9.69-5.689,15.042-7.377
		c5.267-1.661,8.191-7.277,6.53-12.544C269.214,35.308,263.594,32.385,258.331,34.046z"/>
</g>
</svg>
